<svg xmlns="http://www.w3.org/2000/svg" viewBox="0 0 184 40" width="184" height="40">
    <rect width="184" height="40" fill="#051427"/>
    <g stroke="#60a5fa" stroke-width="8" fill="none">
        <!-- 使用单个path元素绘制整个logo，避免连接点问题 -->
        <path d="
            M12 16 v16 
            M16 12 h8 
            M28 8 v24 
            M16 28 h8 
            
            M44 8 v16 
            M48 28 h16 
            M60 8 v24 
            
            M76 8 v24 
            M80 12 h8 
            
            M100 8 v24 
            M104 12 h8 
            M116 8 v24 
            M104 28 h8 
            
            M132 8 v24 
            M136 12 h8 
            
            M156 16 v16 
            M160 12 h8 
            M172 8 v24 
            M160 28 h8
        "/>
    </g>
</svg>