<svg xmlns="http://www.w3.org/2000/svg" viewBox="0 0 184 40" width="184" height="40">
    <!-- 背景 -->
    <rect width="184" height="40" fill="#051427"/>

    <!-- 简约方块风格的 AURORA 50% 051427-->
    <g stroke="#3b82f6" stroke-width="8" fill="none">
        <!-- a -->
        <line x1="12" y1="16" x2="12" y2="32"/>
        <line x1="16" y1="12" x2="24" y2="12"/>
        <line x1="28" y1="8" x2="28" y2="32"/>
        <line x1="16" y1="28" x2="24" y2="28"/>
        <!-- u -->
        <line x1="44" y1="8" x2="44" y2="24"/>
        <line x1="48" y1="28" x2="64" y2="28"/>
        <line x1="60" y1="8" x2="60" y2="32"/>
        <!-- r -->
        <line x1="76" y1="8" x2="76" y2="32"/>
        <line x1="80" y1="12" x2="88" y2="12"/>
        <!-- o -->
        <line x1="100" y1="8" x2="100" y2="32"/>
        <line x1="104" y1="12" x2="112" y2="12"/>
        <line x1="116" y1="8" x2="116" y2="32"/>
        <line x1="104" y1="28" x2="112" y2="28"/>
        <!-- r -->
        <line x1="132" y1="8" x2="132" y2="32"/>
        <line x1="136" y1="12" x2="144" y2="12"/>
        <!-- a -->
        <line x1="156" y1="16" x2="156" y2="32"/>
        <line x1="160" y1="12" x2="168" y2="12"/>
        <line x1="172" y1="8" x2="172" y2="32"/>
        <line x1="160" y1="28" x2="168" y2="28"/>
    </g>
</svg>